<?xml version="1.0" encoding="UTF-8" standalone="no"?>
<!DOCTYPE svg PUBLIC "-//W3C//DTD SVG 1.1//EN"
 "http://www.w3.org/Graphics/SVG/1.1/DTD/svg11.dtd">
<!-- Generated by graphviz version 2.38.0 (20140413.2041)
 -->
<!-- Title: G Pages: 1 -->
<svg width="394pt" height="2512pt"
 viewBox="0.00 0.00 393.79 2512.00" xmlns="http://www.w3.org/2000/svg" xmlns:xlink="http://www.w3.org/1999/xlink">
<g id="graph0" class="graph" transform="scale(1 1) rotate(0) translate(4 2508)">
<title>G</title>
<polygon fill="white" stroke="none" points="-4,4 -4,-2508 389.787,-2508 389.787,4 -4,4"/>
<g id="clust1" class="cluster"><title>cluster_Global</title>
<path fill="none" stroke="gray" d="M210.787,-8C210.787,-8 365.787,-8 365.787,-8 371.787,-8 377.787,-14 377.787,-20 377.787,-20 377.787,-2484 377.787,-2484 377.787,-2490 371.787,-2496 365.787,-2496 365.787,-2496 210.787,-2496 210.787,-2496 204.787,-2496 198.787,-2490 198.787,-2484 198.787,-2484 198.787,-20 198.787,-20 198.787,-14 204.787,-8 210.787,-8"/>
<text text-anchor="middle" x="288.287" y="-2483.2" font-family="Times,serif" font-size="11.00" fill="gray">Global</text>
</g>
<g id="clust2" class="cluster"><title>cluster_\prodigyview</title>
<path fill="none" stroke="gray" d="M218.787,-16C218.787,-16 357.787,-16 357.787,-16 363.787,-16 369.787,-22 369.787,-28 369.787,-28 369.787,-2456 369.787,-2456 369.787,-2462 363.787,-2468 357.787,-2468 357.787,-2468 218.787,-2468 218.787,-2468 212.787,-2468 206.787,-2462 206.787,-2456 206.787,-2456 206.787,-28 206.787,-28 206.787,-22 212.787,-16 218.787,-16"/>
<text text-anchor="middle" x="288.287" y="-2455.2" font-family="Times,serif" font-size="11.00" fill="gray">prodigyview</text>
</g>
<g id="clust3" class="cluster"><title>cluster_\prodigyview\system</title>
<path fill="none" stroke="gray" d="M240.287,-2098C240.287,-2098 336.287,-2098 336.287,-2098 342.287,-2098 348.287,-2104 348.287,-2110 348.287,-2110 348.287,-2428 348.287,-2428 348.287,-2434 342.287,-2440 336.287,-2440 336.287,-2440 240.287,-2440 240.287,-2440 234.287,-2440 228.287,-2434 228.287,-2428 228.287,-2428 228.287,-2110 228.287,-2110 228.287,-2104 234.287,-2098 240.287,-2098"/>
<text text-anchor="middle" x="288.287" y="-2427.2" font-family="Times,serif" font-size="11.00" fill="gray">system</text>
</g>
<g id="clust4" class="cluster"><title>cluster_\prodigyview\network</title>
<path fill="none" stroke="gray" d="M243.287,-1748C243.287,-1748 333.287,-1748 333.287,-1748 339.287,-1748 345.287,-1754 345.287,-1760 345.287,-1760 345.287,-2078 345.287,-2078 345.287,-2084 339.287,-2090 333.287,-2090 333.287,-2090 243.287,-2090 243.287,-2090 237.287,-2090 231.287,-2084 231.287,-2078 231.287,-2078 231.287,-1760 231.287,-1760 231.287,-1754 237.287,-1748 243.287,-1748"/>
<text text-anchor="middle" x="288.287" y="-2077.2" font-family="Times,serif" font-size="11.00" fill="gray">network</text>
</g>
<g id="clust5" class="cluster"><title>cluster_\prodigyview\util</title>
<path fill="none" stroke="gray" d="M246.787,-1128C246.787,-1128 329.787,-1128 329.787,-1128 335.787,-1128 341.787,-1134 341.787,-1140 341.787,-1140 341.787,-1728 341.787,-1728 341.787,-1734 335.787,-1740 329.787,-1740 329.787,-1740 246.787,-1740 246.787,-1740 240.787,-1740 234.787,-1734 234.787,-1728 234.787,-1728 234.787,-1140 234.787,-1140 234.787,-1134 240.787,-1128 246.787,-1128"/>
<text text-anchor="middle" x="288.287" y="-1727.2" font-family="Times,serif" font-size="11.00" fill="gray">util</text>
</g>
<g id="clust6" class="cluster"><title>cluster_\prodigyview\design</title>
<path fill="none" stroke="gray" d="M226.787,-346C226.787,-346 349.787,-346 349.787,-346 355.787,-346 361.787,-352 361.787,-358 361.787,-358 361.787,-1108 361.787,-1108 361.787,-1114 355.787,-1120 349.787,-1120 349.787,-1120 226.787,-1120 226.787,-1120 220.787,-1120 214.787,-1114 214.787,-1108 214.787,-1108 214.787,-358 214.787,-358 214.787,-352 220.787,-346 226.787,-346"/>
<text text-anchor="middle" x="288.287" y="-1107.2" font-family="Times,serif" font-size="11.00" fill="gray">design</text>
</g>
<g id="clust7" class="cluster"><title>cluster_\prodigyview\media</title>
<path fill="none" stroke="gray" d="M265.287,-158C265.287,-158 311.287,-158 311.287,-158 317.287,-158 323.287,-164 323.287,-170 323.287,-170 323.287,-326 323.287,-326 323.287,-332 317.287,-338 311.287,-338 311.287,-338 265.287,-338 265.287,-338 259.287,-338 253.287,-332 253.287,-326 253.287,-326 253.287,-170 253.287,-170 253.287,-164 259.287,-158 265.287,-158"/>
<text text-anchor="middle" x="288.287" y="-325.2" font-family="Times,serif" font-size="11.00" fill="gray">media</text>
</g>
<g id="clust8" class="cluster"><title>cluster_\prodigyview\template</title>
<path fill="none" stroke="gray" d="M265.287,-24C265.287,-24 311.287,-24 311.287,-24 317.287,-24 323.287,-30 323.287,-36 323.287,-36 323.287,-138 323.287,-138 323.287,-144 317.287,-150 311.287,-150 311.287,-150 265.287,-150 265.287,-150 259.287,-150 253.287,-144 253.287,-138 253.287,-138 253.287,-36 253.287,-36 253.287,-30 259.287,-24 265.287,-24"/>
<text text-anchor="middle" x="288.287" y="-137.2" font-family="Times,serif" font-size="11.00" fill="gray">template</text>
</g>
<!-- \\prodigyview\\system\\Configuration -->
<g id="node1" class="node"><title>\\prodigyview\\system\\Configuration</title>
<polygon fill="none" stroke="black" points="340.287,-2412 236.287,-2412 236.287,-2376 340.287,-2376 340.287,-2412"/>
<text text-anchor="middle" x="288.287" y="-2391.2" font-family="Courier,monospace" font-size="11.00">Configuration</text>
</g>
<!-- \\prodigyview\\system\\Session -->
<g id="node2" class="node"><title>\\prodigyview\\system\\Session</title>
<polygon fill="none" stroke="black" points="320.287,-2358 256.287,-2358 256.287,-2322 320.287,-2322 320.287,-2358"/>
<text text-anchor="middle" x="288.287" y="-2337.2" font-family="Courier,monospace" font-size="11.00">Session</text>
</g>
<!-- \\prodigyview\\system\\Libraries -->
<g id="node3" class="node"><title>\\prodigyview\\system\\Libraries</title>
<polygon fill="none" stroke="black" points="326.787,-2304 249.787,-2304 249.787,-2268 326.787,-2268 326.787,-2304"/>
<text text-anchor="middle" x="288.287" y="-2283.2" font-family="Courier,monospace" font-size="11.00">Libraries</text>
</g>
<!-- \\prodigyview\\system\\Bootstrap -->
<g id="node4" class="node"><title>\\prodigyview\\system\\Bootstrap</title>
<polygon fill="none" stroke="black" points="326.787,-2250 249.787,-2250 249.787,-2214 326.787,-2214 326.787,-2250"/>
<text text-anchor="middle" x="288.287" y="-2229.2" font-family="Courier,monospace" font-size="11.00">Bootstrap</text>
</g>
<!-- \\prodigyview\\system\\Security -->
<g id="node5" class="node"><title>\\prodigyview\\system\\Security</title>
<polygon fill="none" stroke="black" points="323.787,-2196 252.787,-2196 252.787,-2160 323.787,-2160 323.787,-2196"/>
<text text-anchor="middle" x="288.287" y="-2175.2" font-family="Courier,monospace" font-size="11.00">Security</text>
</g>
<!-- \\prodigyview\\system\\Database -->
<g id="node6" class="node"><title>\\prodigyview\\system\\Database</title>
<polygon fill="none" stroke="black" points="323.787,-2142 252.787,-2142 252.787,-2106 323.787,-2106 323.787,-2142"/>
<text text-anchor="middle" x="288.287" y="-2121.2" font-family="Courier,monospace" font-size="11.00">Database</text>
</g>
<!-- \\prodigyview\\network\\Request -->
<g id="node7" class="node"><title>\\prodigyview\\network\\Request</title>
<polygon fill="none" stroke="black" points="320.287,-2062 256.287,-2062 256.287,-2026 320.287,-2026 320.287,-2062"/>
<text text-anchor="middle" x="288.287" y="-2041.2" font-family="Courier,monospace" font-size="11.00">Request</text>
</g>
<!-- \\prodigyview\\network\\Response -->
<g id="node8" class="node"><title>\\prodigyview\\network\\Response</title>
<polygon fill="none" stroke="black" points="323.787,-2008 252.787,-2008 252.787,-1972 323.787,-1972 323.787,-2008"/>
<text text-anchor="middle" x="288.287" y="-1987.2" font-family="Courier,monospace" font-size="11.00">Response</text>
</g>
<!-- \\prodigyview\\network\\Communicator -->
<g id="node9" class="node"><title>\\prodigyview\\network\\Communicator</title>
<polygon fill="none" stroke="black" points="337.287,-1954 239.287,-1954 239.287,-1918 337.287,-1918 337.287,-1954"/>
<text text-anchor="middle" x="288.287" y="-1933.2" font-family="Courier,monospace" font-size="11.00">Communicator</text>
</g>
<!-- \\prodigyview\\network\\Router -->
<g id="node10" class="node"><title>\\prodigyview\\network\\Router</title>
<polygon fill="none" stroke="black" points="316.787,-1900 259.787,-1900 259.787,-1864 316.787,-1864 316.787,-1900"/>
<text text-anchor="middle" x="288.287" y="-1879.2" font-family="Courier,monospace" font-size="11.00">Router</text>
</g>
<!-- \\prodigyview\\network\\Curl -->
<g id="node11" class="node"><title>\\prodigyview\\network\\Curl</title>
<polygon fill="none" stroke="black" points="315.287,-1846 261.287,-1846 261.287,-1810 315.287,-1810 315.287,-1846"/>
<text text-anchor="middle" x="288.287" y="-1825.2" font-family="Courier,monospace" font-size="11.00">Curl</text>
</g>
<!-- \\prodigyview\\network\\RequestAuth -->
<g id="node12" class="node"><title>\\prodigyview\\network\\RequestAuth</title>
<polygon fill="none" stroke="black" points="333.787,-1792 242.787,-1792 242.787,-1756 333.787,-1756 333.787,-1792"/>
<text text-anchor="middle" x="288.287" y="-1771.2" font-family="Courier,monospace" font-size="11.00">RequestAuth</text>
</g>
<!-- \\prodigyview\\util\\Validator -->
<g id="node13" class="node"><title>\\prodigyview\\util\\Validator</title>
<polygon fill="none" stroke="black" points="326.787,-1712 249.787,-1712 249.787,-1676 326.787,-1676 326.787,-1712"/>
<text text-anchor="middle" x="288.287" y="-1691.2" font-family="Courier,monospace" font-size="11.00">Validator</text>
</g>
<!-- \\prodigyview\\util\\Mail -->
<g id="node14" class="node"><title>\\prodigyview\\util\\Mail</title>
<polygon fill="none" stroke="black" points="315.287,-1658 261.287,-1658 261.287,-1622 315.287,-1622 315.287,-1658"/>
<text text-anchor="middle" x="288.287" y="-1637.2" font-family="Courier,monospace" font-size="11.00">Mail</text>
</g>
<!-- \\prodigyview\\util\\Tools -->
<g id="node15" class="node"><title>\\prodigyview\\util\\Tools</title>
<polygon fill="none" stroke="black" points="315.287,-1604 261.287,-1604 261.287,-1568 315.287,-1568 315.287,-1604"/>
<text text-anchor="middle" x="288.287" y="-1583.2" font-family="Courier,monospace" font-size="11.00">Tools</text>
</g>
<!-- \\prodigyview\\util\\Log -->
<g id="node16" class="node"><title>\\prodigyview\\util\\Log</title>
<polygon fill="none" stroke="black" points="315.287,-1550 261.287,-1550 261.287,-1514 315.287,-1514 315.287,-1550"/>
<text text-anchor="middle" x="288.287" y="-1529.2" font-family="Courier,monospace" font-size="11.00">Log</text>
</g>
<!-- \\prodigyview\\util\\Cache -->
<g id="node17" class="node"><title>\\prodigyview\\util\\Cache</title>
<polygon fill="none" stroke="black" points="315.287,-1496 261.287,-1496 261.287,-1460 315.287,-1460 315.287,-1496"/>
<text text-anchor="middle" x="288.287" y="-1475.2" font-family="Courier,monospace" font-size="11.00">Cache</text>
</g>
<!-- \\prodigyview\\util\\FileManager -->
<g id="node18" class="node"><title>\\prodigyview\\util\\FileManager</title>
<polygon fill="none" stroke="black" points="333.787,-1442 242.787,-1442 242.787,-1406 333.787,-1406 333.787,-1442"/>
<text text-anchor="middle" x="288.287" y="-1421.2" font-family="Courier,monospace" font-size="11.00">FileManager</text>
</g>
<!-- \\prodigyview\\util\\Collection -->
<g id="node19" class="node"><title>\\prodigyview\\util\\Collection</title>
<polygon fill="none" stroke="black" points="330.287,-1388 246.287,-1388 246.287,-1352 330.287,-1352 330.287,-1388"/>
<text text-anchor="middle" x="288.287" y="-1367.2" font-family="Courier,monospace" font-size="11.00">Collection</text>
</g>
<!-- \\IteratorAggregate -->
<g id="node43" class="node"><title>\\IteratorAggregate</title>
<ellipse fill="none" stroke="black" cx="75.3933" cy="-1370" rx="75.2868" ry="18"/>
<text text-anchor="middle" x="75.3933" y="-1366.3" font-family="Times,serif" font-size="14.00" fill="gray">\IteratorAggregate</text>
</g>
<!-- \\prodigyview\\util\\Collection&#45;&gt;\\IteratorAggregate -->
<g id="edge1" class="edge"><title>\\prodigyview\\util\\Collection&#45;&gt;\\IteratorAggregate</title>
<path fill="none" stroke="black" stroke-dasharray="1,5" d="M246.124,-1370C221.997,-1370 190.611,-1370 161.4,-1370"/>
<polygon fill="none" stroke="black" points="161.174,-1366.5 151.174,-1370 161.174,-1373.5 161.174,-1366.5"/>
</g>
<!-- \\prodigyview\\util\\Iterator -->
<g id="node20" class="node"><title>\\prodigyview\\util\\Iterator</title>
<polygon fill="none" stroke="black" points="323.787,-1334 252.787,-1334 252.787,-1298 323.787,-1298 323.787,-1334"/>
<text text-anchor="middle" x="288.287" y="-1313.2" font-family="Courier,monospace" font-size="11.00">Iterator</text>
</g>
<!-- \\Iterator -->
<g id="node44" class="node"><title>\\Iterator</title>
<ellipse fill="none" stroke="black" cx="75.3933" cy="-1316" rx="38.9931" ry="18"/>
<text text-anchor="middle" x="75.3933" y="-1312.3" font-family="Times,serif" font-size="14.00" fill="gray">\Iterator</text>
</g>
<!-- \\prodigyview\\util\\Iterator&#45;&gt;\\Iterator -->
<g id="edge2" class="edge"><title>\\prodigyview\\util\\Iterator&#45;&gt;\\Iterator</title>
<path fill="none" stroke="black" stroke-dasharray="1,5" d="M252.462,-1316C217.559,-1316 163.55,-1316 124.552,-1316"/>
<polygon fill="none" stroke="black" points="124.481,-1312.5 114.481,-1316 124.481,-1319.5 124.481,-1312.5"/>
</g>
<!-- \\prodigyview\\util\\Mathematics -->
<g id="node21" class="node"><title>\\prodigyview\\util\\Mathematics</title>
<polygon fill="none" stroke="black" points="333.787,-1280 242.787,-1280 242.787,-1244 333.787,-1244 333.787,-1280"/>
<text text-anchor="middle" x="288.287" y="-1259.2" font-family="Courier,monospace" font-size="11.00">Mathematics</text>
</g>
<!-- \\prodigyview\\util\\Cli -->
<g id="node22" class="node"><title>\\prodigyview\\util\\Cli</title>
<polygon fill="none" stroke="black" points="315.287,-1226 261.287,-1226 261.287,-1190 315.287,-1190 315.287,-1226"/>
<text text-anchor="middle" x="288.287" y="-1205.2" font-family="Courier,monospace" font-size="11.00">Cli</text>
</g>
<!-- \\prodigyview\\util\\Conversions -->
<g id="node23" class="node"><title>\\prodigyview\\util\\Conversions</title>
<polygon fill="none" stroke="black" points="333.787,-1172 242.787,-1172 242.787,-1136 333.787,-1136 333.787,-1172"/>
<text text-anchor="middle" x="288.287" y="-1151.2" font-family="Courier,monospace" font-size="11.00">Conversions</text>
</g>
<!-- \\prodigyview\\design\\StaticApplication -->
<g id="node24" class="node"><title>\\prodigyview\\design\\StaticApplication</title>
<polygon fill="none" stroke="black" points="353.787,-1092 222.787,-1092 222.787,-1056 353.787,-1056 353.787,-1092"/>
<text text-anchor="start" x="254.287" y="-1077.2" font-family="Courier,monospace" font-size="11.00">«abstract»</text>
<text text-anchor="start" x="230.787" y="-1065.2" font-family="Courier,monospace" font-size="11.00">StaticApplication</text>
</g>
<!-- \\prodigyview\\design\\Application -->
<g id="node25" class="node"><title>\\prodigyview\\design\\Application</title>
<polygon fill="none" stroke="black" points="333.787,-1038 242.787,-1038 242.787,-1002 333.787,-1002 333.787,-1038"/>
<text text-anchor="start" x="254.287" y="-1023.2" font-family="Courier,monospace" font-size="11.00">«abstract»</text>
<text text-anchor="start" x="250.787" y="-1011.2" font-family="Courier,monospace" font-size="11.00">Application</text>
</g>
<!-- \\prodigyview\\design\\StaticObserver -->
<g id="node26" class="node"><title>\\prodigyview\\design\\StaticObserver</title>
<polygon fill="none" stroke="black" points="343.787,-984 232.787,-984 232.787,-948 343.787,-948 343.787,-984"/>
<text text-anchor="middle" x="288.287" y="-963.2" font-family="Courier,monospace" font-size="11.00">StaticObserver</text>
</g>
<!-- \\prodigyview\\design\\InstanceObject -->
<g id="node27" class="node"><title>\\prodigyview\\design\\InstanceObject</title>
<polygon fill="none" stroke="black" points="343.787,-930 232.787,-930 232.787,-894 343.787,-894 343.787,-930"/>
<text text-anchor="middle" x="288.287" y="-909.2" font-family="Courier,monospace" font-size="11.00">InstanceObject</text>
</g>
<!-- \\prodigyview\\design\\StaticObject -->
<g id="node28" class="node"><title>\\prodigyview\\design\\StaticObject</title>
<polygon fill="none" stroke="black" points="337.287,-876 239.287,-876 239.287,-840 337.287,-840 337.287,-876"/>
<text text-anchor="middle" x="288.287" y="-855.2" font-family="Courier,monospace" font-size="11.00">StaticObject</text>
</g>
<!-- \\prodigyview\\design\\StaticFilter -->
<g id="node29" class="node"><title>\\prodigyview\\design\\StaticFilter</title>
<polygon fill="none" stroke="black" points="337.287,-822 239.287,-822 239.287,-786 337.287,-786 337.287,-822"/>
<text text-anchor="middle" x="288.287" y="-801.2" font-family="Courier,monospace" font-size="11.00">StaticFilter</text>
</g>
<!-- \\prodigyview\\design\\StaticInstance -->
<g id="node30" class="node"><title>\\prodigyview\\design\\StaticInstance</title>
<polygon fill="none" stroke="black" points="343.787,-768 232.787,-768 232.787,-732 343.787,-732 343.787,-768"/>
<text text-anchor="middle" x="288.287" y="-747.2" font-family="Courier,monospace" font-size="11.00">StaticInstance</text>
</g>
<!-- \\prodigyview\\design\\StaticInvoke -->
<g id="node31" class="node"><title>\\prodigyview\\design\\StaticInvoke</title>
<polygon fill="none" stroke="black" points="337.287,-714 239.287,-714 239.287,-678 337.287,-678 337.287,-714"/>
<text text-anchor="middle" x="288.287" y="-693.2" font-family="Courier,monospace" font-size="11.00">StaticInvoke</text>
</g>
<!-- \\prodigyview\\design\\Filter -->
<g id="node32" class="node"><title>\\prodigyview\\design\\Filter</title>
<polygon fill="none" stroke="black" points="316.787,-660 259.787,-660 259.787,-624 316.787,-624 316.787,-660"/>
<text text-anchor="middle" x="288.287" y="-639.2" font-family="Courier,monospace" font-size="11.00">Filter</text>
</g>
<!-- \\prodigyview\\design\\Adapter -->
<g id="node33" class="node"><title>\\prodigyview\\design\\Adapter</title>
<polygon fill="none" stroke="black" points="320.287,-606 256.287,-606 256.287,-570 320.287,-570 320.287,-606"/>
<text text-anchor="middle" x="288.287" y="-585.2" font-family="Courier,monospace" font-size="11.00">Adapter</text>
</g>
<!-- \\prodigyview\\design\\StaticAdapter -->
<g id="node34" class="node"><title>\\prodigyview\\design\\StaticAdapter</title>
<polygon fill="none" stroke="black" points="340.287,-552 236.287,-552 236.287,-516 340.287,-516 340.287,-552"/>
<text text-anchor="middle" x="288.287" y="-531.2" font-family="Courier,monospace" font-size="11.00">StaticAdapter</text>
</g>
<!-- \\prodigyview\\design\\Observer -->
<g id="node35" class="node"><title>\\prodigyview\\design\\Observer</title>
<polygon fill="none" stroke="black" points="323.787,-498 252.787,-498 252.787,-462 323.787,-462 323.787,-498"/>
<text text-anchor="middle" x="288.287" y="-477.2" font-family="Courier,monospace" font-size="11.00">Observer</text>
</g>
<!-- \\prodigyview\\design\\Singleton -->
<g id="node36" class="node"><title>\\prodigyview\\design\\Singleton</title>
<polygon fill="none" stroke="black" points="326.787,-444 249.787,-444 249.787,-408 326.787,-408 326.787,-444"/>
<text text-anchor="middle" x="288.287" y="-423.2" font-family="Courier,monospace" font-size="11.00">Singleton</text>
</g>
<!-- \\prodigyview\\design\\Invoke -->
<g id="node37" class="node"><title>\\prodigyview\\design\\Invoke</title>
<polygon fill="none" stroke="black" points="316.787,-390 259.787,-390 259.787,-354 316.787,-354 316.787,-390"/>
<text text-anchor="middle" x="288.287" y="-369.2" font-family="Courier,monospace" font-size="11.00">Invoke</text>
</g>
<!-- \\prodigyview\\media\\Video -->
<g id="node38" class="node"><title>\\prodigyview\\media\\Video</title>
<polygon fill="none" stroke="black" points="315.287,-310 261.287,-310 261.287,-274 315.287,-274 315.287,-310"/>
<text text-anchor="middle" x="288.287" y="-289.2" font-family="Courier,monospace" font-size="11.00">Video</text>
</g>
<!-- \\prodigyview\\media\\Audio -->
<g id="node39" class="node"><title>\\prodigyview\\media\\Audio</title>
<polygon fill="none" stroke="black" points="315.287,-256 261.287,-256 261.287,-220 315.287,-220 315.287,-256"/>
<text text-anchor="middle" x="288.287" y="-235.2" font-family="Courier,monospace" font-size="11.00">Audio</text>
</g>
<!-- \\prodigyview\\media\\Image -->
<g id="node40" class="node"><title>\\prodigyview\\media\\Image</title>
<polygon fill="none" stroke="black" points="315.287,-202 261.287,-202 261.287,-166 315.287,-166 315.287,-202"/>
<text text-anchor="middle" x="288.287" y="-181.2" font-family="Courier,monospace" font-size="11.00">Image</text>
</g>
<!-- \\prodigyview\\template\\Forms -->
<g id="node41" class="node"><title>\\prodigyview\\template\\Forms</title>
<polygon fill="none" stroke="black" points="315.287,-122 261.287,-122 261.287,-86 315.287,-86 315.287,-122"/>
<text text-anchor="middle" x="288.287" y="-101.2" font-family="Courier,monospace" font-size="11.00">Forms</text>
</g>
<!-- \\prodigyview\\template\\Html -->
<g id="node42" class="node"><title>\\prodigyview\\template\\Html</title>
<polygon fill="none" stroke="black" points="315.287,-68 261.287,-68 261.287,-32 315.287,-32 315.287,-68"/>
<text text-anchor="middle" x="288.287" y="-47.2" font-family="Courier,monospace" font-size="11.00">Html</text>
</g>
</g>
</svg>
